<svg id="Calque_1" data-name="Calque 1" xmlns="http://www.w3.org/2000/svg" viewBox="0 0 1102.61 460.2"><defs><style>.cls-1{fill:#008d36;}.cls-2{fill:#fff;}</style></defs><polygon class="cls-1" points="756.95 160.24 580.14 38.81 403.34 160.24 402.64 160.27 402.64 178.81 403.34 178.77 580.14 57.34 756.95 178.77 757.64 178.81 757.64 160.27 756.95 160.24"/><polygon class="cls-1" points="737.64 399.81 737.64 172.88 737.02 172.85 580.14 66.25 423.26 172.85 422.64 172.88 422.64 399.81 737.64 399.81"/><path class="cls-1" d="M562.33,224.83a63.94,63.94,0,1,1,125,0h10.25a74,74,0,1,0-145.55,0Z" transform="translate(-44.71 -137.46)"/><polygon class="cls-1" points="435.74 247.16 332.39 170.5 229.05 247.16 228.64 247.18 228.64 258.88 229.05 258.86 332.39 182.2 435.74 258.86 436.14 258.88 436.14 247.18 435.74 247.16"/><polygon class="cls-1" points="424.45 399.81 424.45 256.56 424.09 256.54 332.39 189.24 240.69 256.54 240.33 256.56 240.33 399.81 424.45 399.81"/><path class="cls-1" d="M345.17,339.26V308.94H324.53v41.53h8.52C337.39,347,340.81,342.49,345.17,339.26Z" transform="translate(-44.71 -137.46)"/><rect class="cls-2" x="307.47" y="306.87" width="49.85" height="85.88"/><path class="cls-1" d="M811.06,400.55h0v0a75.05,75.05,0,0,1,0-9.72L686.83,329.54,555.48,394.33l-.52,0v9.89l.52,0,131.35-64.79,124.25,61.29A1.11,1.11,0,0,0,811.06,400.55Z" transform="translate(-44.71 -137.46)"/><polygon class="cls-2" points="760.79 382.37 760.79 260.31 760.33 260.3 642.13 202.96 523.93 260.3 523.47 260.31 523.47 382.37 760.79 382.37"/><rect class="cls-1" x="596.13" y="297.53" width="42.01" height="85.43"/><rect class="cls-1" x="651.52" y="297.53" width="42.01" height="85.43"/><rect class="cls-1" x="755.65" y="255.88" width="10.29" height="140.66"/><rect class="cls-1" x="721.21" y="382.37" width="69.46" height="17.44"/><rect class="cls-2" x="520.65" y="153.03" width="118.99" height="47.28"/><rect class="cls-1" x="525.84" y="157.19" width="50.92" height="38.45"/><rect class="cls-1" x="583.52" y="157.19" width="50.92" height="38.45"/><rect class="cls-1" x="791.4" y="395.45" width="59.6" height="8.44" transform="translate(196.54 -443.32) rotate(24.63)"/><path class="cls-1" d="M1147.32,556.45c-138.73-27.66-334.44-44.9-551.3-44.9s-412.58,17.24-551.31,44.9Z" transform="translate(-44.71 -137.46)"/><path class="cls-1" d="M835.38,592.15C748.21,577.56,625.25,568.47,489,568.47s-259.22,9.09-346.39,23.68Z" transform="translate(-44.71 -137.46)"/><path class="cls-1" d="M1122.34,597.66c-44.29-10.81-107.2-20.13-177.3-25.25s-133.7-5.07-179.1-.83Z" transform="translate(-44.71 -137.46)"/></svg>